<svg xmlns="http://www.w3.org/2000/svg" xmlns:xlink="http://www.w3.org/1999/xlink" width="851" zoomAndPan="magnify" viewBox="0 0 638.25 236.249991" height="315" preserveAspectRatio="xMidYMid meet" version="1.0"><defs><g/><clipPath id="0f4ade414e"><path d="M 190.605469 88 L 451.527344 88 L 451.527344 157.335938 L 190.605469 157.335938 Z M 190.605469 88 " clip-rule="nonzero"/></clipPath><clipPath id="23aaf95965"><path d="M 190.605469 83.5 L 447 83.5 L 447 152 L 190.605469 152 Z M 190.605469 83.5 " clip-rule="nonzero"/></clipPath><clipPath id="a9e1ed6bd9"><path d="M 264.042969 110.09375 L 373.195312 110.09375 L 373.195312 130 L 264.042969 130 Z M 264.042969 110.09375 " clip-rule="nonzero"/></clipPath><clipPath id="aff7b26e32"><path d="M 276 131 L 332 131 L 332 146.726562 L 276 146.726562 Z M 276 131 " clip-rule="nonzero"/></clipPath><clipPath id="dac4b053bb"><path d="M 409.859375 107.046875 L 422.566406 107.046875 L 422.566406 128.726562 L 409.859375 128.726562 Z M 409.859375 107.046875 " clip-rule="nonzero"/></clipPath><clipPath id="db2ded382c"><path d="M 419.890625 107.046875 L 432.601562 107.046875 L 432.601562 128.726562 L 419.890625 128.726562 Z M 419.890625 107.046875 " clip-rule="nonzero"/></clipPath></defs><g clip-path="url(#0f4ade414e)"><path fill="#ff9900" d="M 224.941406 88 L 417.417969 88 C 418.542969 88 419.664062 88.054688 420.78125 88.164062 C 421.902344 88.277344 423.011719 88.441406 424.117188 88.660156 C 425.21875 88.878906 426.308594 89.152344 427.382812 89.476562 C 428.460938 89.804688 429.515625 90.183594 430.554688 90.613281 C 431.59375 91.042969 432.609375 91.523438 433.601562 92.054688 C 434.59375 92.585938 435.558594 93.160156 436.492188 93.785156 C 437.425781 94.410156 438.328125 95.078125 439.199219 95.792969 C 440.066406 96.507812 440.898438 97.261719 441.695312 98.054688 C 442.488281 98.851562 443.242188 99.683594 443.957031 100.550781 C 444.671875 101.421875 445.339844 102.324219 445.964844 103.257812 C 446.589844 104.195312 447.167969 105.15625 447.695312 106.148438 C 448.226562 107.140625 448.707031 108.15625 449.136719 109.195312 C 449.566406 110.234375 449.945312 111.289062 450.273438 112.367188 C 450.597656 113.441406 450.871094 114.53125 451.089844 115.632812 C 451.308594 116.738281 451.476562 117.847656 451.585938 118.96875 C 451.695312 120.085938 451.75 121.207031 451.75 122.332031 L 451.75 123.027344 C 451.75 124.152344 451.695312 125.273438 451.585938 126.390625 C 451.476562 127.511719 451.308594 128.621094 451.089844 129.722656 C 450.871094 130.828125 450.597656 131.917969 450.273438 132.992188 C 449.945312 134.070312 449.566406 135.125 449.136719 136.164062 C 448.707031 137.203125 448.226562 138.21875 447.695312 139.210938 C 447.167969 140.203125 446.589844 141.164062 445.964844 142.101562 C 445.339844 143.035156 444.671875 143.9375 443.957031 144.808594 C 443.242188 145.675781 442.488281 146.507812 441.695312 147.304688 C 440.898438 148.097656 440.066406 148.851562 439.199219 149.566406 C 438.328125 150.28125 437.425781 150.949219 436.492188 151.574219 C 435.558594 152.199219 434.59375 152.773438 433.601562 153.304688 C 432.609375 153.835938 431.59375 154.316406 430.554688 154.746094 C 429.515625 155.175781 428.460938 155.554688 427.382812 155.878906 C 426.308594 156.207031 425.21875 156.480469 424.117188 156.699219 C 423.011719 156.917969 421.902344 157.082031 420.78125 157.195312 C 419.664062 157.304688 418.542969 157.359375 417.417969 157.359375 L 224.941406 157.359375 C 223.816406 157.359375 222.695312 157.304688 221.574219 157.195312 C 220.457031 157.082031 219.34375 156.917969 218.242188 156.699219 C 217.140625 156.480469 216.050781 156.207031 214.972656 155.878906 C 213.898438 155.554688 212.839844 155.175781 211.800781 154.746094 C 210.761719 154.316406 209.746094 153.835938 208.753906 153.304688 C 207.761719 152.773438 206.800781 152.199219 205.867188 151.574219 C 204.929688 150.949219 204.027344 150.28125 203.160156 149.566406 C 202.289062 148.851562 201.457031 148.097656 200.664062 147.304688 C 199.867188 146.507812 199.113281 145.675781 198.398438 144.808594 C 197.6875 143.9375 197.019531 143.035156 196.394531 142.101562 C 195.769531 141.164062 195.191406 140.203125 194.660156 139.210938 C 194.128906 138.21875 193.652344 137.203125 193.21875 136.164062 C 192.789062 135.125 192.410156 134.070312 192.085938 132.992188 C 191.757812 131.917969 191.484375 130.828125 191.265625 129.722656 C 191.046875 128.621094 190.882812 127.511719 190.773438 126.390625 C 190.660156 125.273438 190.605469 124.152344 190.605469 123.027344 L 190.605469 122.332031 C 190.605469 121.207031 190.660156 120.085938 190.773438 118.96875 C 190.882812 117.847656 191.046875 116.738281 191.265625 115.632812 C 191.484375 114.53125 191.757812 113.441406 192.085938 112.367188 C 192.410156 111.289062 192.789062 110.234375 193.21875 109.195312 C 193.652344 108.15625 194.128906 107.140625 194.660156 106.148438 C 195.191406 105.15625 195.769531 104.195312 196.394531 103.257812 C 197.019531 102.324219 197.6875 101.421875 198.398438 100.550781 C 199.113281 99.683594 199.867188 98.851562 200.664062 98.054688 C 201.457031 97.261719 202.289062 96.507812 203.160156 95.792969 C 204.027344 95.078125 204.929688 94.410156 205.867188 93.785156 C 206.800781 93.160156 207.761719 92.585938 208.753906 92.054688 C 209.746094 91.523438 210.761719 91.042969 211.800781 90.613281 C 212.839844 90.183594 213.898438 89.804688 214.972656 89.476562 C 216.050781 89.152344 217.140625 88.878906 218.242188 88.660156 C 219.34375 88.441406 220.457031 88.277344 221.574219 88.164062 C 222.695312 88.054688 223.816406 88 224.941406 88 Z M 224.941406 88 " fill-opacity="1" fill-rule="nonzero"/></g><g clip-path="url(#23aaf95965)"><path fill="#231f20" d="M 224.300781 83.6875 L 413.195312 83.6875 C 414.300781 83.6875 415.402344 83.738281 416.5 83.847656 C 417.597656 83.957031 418.6875 84.117188 419.769531 84.332031 C 420.851562 84.546875 421.921875 84.816406 422.976562 85.136719 C 424.035156 85.457031 425.070312 85.828125 426.089844 86.25 C 427.109375 86.671875 428.105469 87.144531 429.082031 87.664062 C 430.054688 88.183594 431 88.75 431.917969 89.363281 C 432.832031 89.976562 433.71875 90.632812 434.570312 91.332031 C 435.425781 92.035156 436.242188 92.773438 437.023438 93.554688 C 437.800781 94.335938 438.542969 95.152344 439.242188 96.003906 C 439.941406 96.859375 440.597656 97.742188 441.210938 98.660156 C 441.824219 99.578125 442.390625 100.523438 442.914062 101.496094 C 443.433594 102.46875 443.902344 103.464844 444.324219 104.484375 C 444.75 105.503906 445.121094 106.542969 445.441406 107.597656 C 445.761719 108.65625 446.027344 109.722656 446.242188 110.804688 C 446.457031 111.886719 446.621094 112.980469 446.730469 114.078125 C 446.835938 115.175781 446.890625 116.277344 446.890625 117.378906 L 446.890625 118.058594 C 446.890625 119.164062 446.835938 120.265625 446.730469 121.363281 C 446.621094 122.460938 446.457031 123.550781 446.242188 124.632812 C 446.027344 125.714844 445.761719 126.785156 445.441406 127.839844 C 445.121094 128.898438 444.75 129.933594 444.324219 130.953125 C 443.902344 131.972656 443.433594 132.96875 442.914062 133.945312 C 442.390625 134.917969 441.824219 135.863281 441.210938 136.78125 C 440.597656 137.695312 439.941406 138.582031 439.242188 139.4375 C 438.542969 140.289062 437.800781 141.105469 437.023438 141.886719 C 436.242188 142.664062 435.425781 143.40625 434.570312 144.105469 C 433.71875 144.804688 432.832031 145.460938 431.917969 146.074219 C 431 146.6875 430.054688 147.253906 429.082031 147.777344 C 428.105469 148.296875 427.109375 148.765625 426.089844 149.191406 C 425.070312 149.613281 424.035156 149.984375 422.976562 150.304688 C 421.921875 150.625 420.851562 150.890625 419.769531 151.105469 C 418.6875 151.320312 417.597656 151.484375 416.5 151.59375 C 415.402344 151.699219 414.300781 151.753906 413.195312 151.753906 L 224.300781 151.753906 C 223.195312 151.753906 222.097656 151.699219 221 151.59375 C 219.898438 151.484375 218.808594 151.320312 217.726562 151.105469 C 216.644531 150.890625 215.574219 150.625 214.519531 150.304688 C 213.464844 149.984375 212.425781 149.613281 211.40625 149.191406 C 210.386719 148.765625 209.390625 148.296875 208.417969 147.777344 C 207.445312 147.253906 206.5 146.6875 205.582031 146.074219 C 204.664062 145.460938 203.777344 144.804688 202.925781 144.105469 C 202.074219 143.40625 201.253906 142.664062 200.476562 141.886719 C 199.695312 141.105469 198.953125 140.289062 198.253906 139.4375 C 197.554688 138.582031 196.898438 137.695312 196.285156 136.78125 C 195.671875 135.863281 195.105469 134.917969 194.585938 133.945312 C 194.066406 132.96875 193.59375 131.972656 193.171875 130.953125 C 192.75 129.933594 192.378906 128.898438 192.058594 127.839844 C 191.738281 126.785156 191.46875 125.714844 191.253906 124.632812 C 191.039062 123.550781 190.878906 122.460938 190.769531 121.363281 C 190.660156 120.265625 190.605469 119.164062 190.605469 118.058594 L 190.605469 117.378906 C 190.605469 116.277344 190.660156 115.175781 190.769531 114.078125 C 190.878906 112.980469 191.039062 111.886719 191.253906 110.804688 C 191.46875 109.722656 191.738281 108.65625 192.058594 107.597656 C 192.378906 106.542969 192.75 105.503906 193.171875 104.484375 C 193.59375 103.464844 194.066406 102.46875 194.585938 101.496094 C 195.105469 100.523438 195.671875 99.578125 196.285156 98.660156 C 196.898438 97.742188 197.554688 96.859375 198.253906 96.003906 C 198.953125 95.152344 199.695312 94.335938 200.476562 93.554688 C 201.253906 92.773438 202.074219 92.035156 202.925781 91.332031 C 203.777344 90.632812 204.664062 89.976562 205.582031 89.363281 C 206.5 88.75 207.445312 88.183594 208.417969 87.664062 C 209.390625 87.144531 210.386719 86.671875 211.40625 86.25 C 212.425781 85.828125 213.464844 85.457031 214.519531 85.136719 C 215.574219 84.816406 216.644531 84.546875 217.726562 84.332031 C 218.808594 84.117188 219.898438 83.957031 221 83.847656 C 222.097656 83.738281 223.195312 83.6875 224.300781 83.6875 Z M 224.300781 83.6875 " fill-opacity="1" fill-rule="nonzero"/></g><g clip-path="url(#a9e1ed6bd9)"><path fill="#ffffff" d="M 269.441406 129.519531 C 268.382812 129.519531 267.453125 129.289062 266.652344 128.824219 C 265.847656 128.347656 265.222656 127.691406 264.777344 126.855469 C 264.332031 126.003906 264.109375 125.027344 264.109375 123.925781 C 264.109375 122.597656 264.433594 121.433594 265.089844 120.433594 C 265.757812 119.433594 266.703125 118.664062 267.921875 118.128906 C 269.15625 117.589844 270.597656 117.320312 272.25 117.320312 C 273.007812 117.320312 273.625 117.375 274.101562 117.476562 L 274.101562 117.007812 C 274.101562 115.875 273.894531 115.03125 273.476562 114.480469 C 273.058594 113.910156 272.429688 113.628906 271.582031 113.628906 C 270.214844 113.628906 269.335938 114.351562 268.949219 115.796875 C 268.828125 116.214844 268.582031 116.394531 268.210938 116.335938 L 265.175781 115.796875 C 264.953125 115.753906 264.800781 115.65625 264.710938 115.507812 C 264.632812 115.359375 264.628906 115.15625 264.6875 114.902344 C 265.074219 113.378906 265.890625 112.203125 267.140625 111.367188 C 268.40625 110.519531 269.988281 110.09375 271.894531 110.09375 C 274.152344 110.09375 275.871094 110.703125 277.046875 111.929688 C 278.234375 113.152344 278.832031 114.933594 278.832031 117.277344 L 278.832031 128.535156 C 278.832031 128.699219 278.773438 128.839844 278.652344 128.960938 C 278.546875 129.0625 278.414062 129.117188 278.25 129.117188 L 275.347656 129.117188 C 274.992188 129.117188 274.769531 128.921875 274.679688 128.535156 L 274.234375 126.429688 L 274.054688 126.429688 C 273.652344 127.414062 273.050781 128.175781 272.25 128.710938 C 271.460938 129.25 270.523438 129.519531 269.4375 129.519531 Z M 268.972656 123.386719 C 268.972656 124.179688 269.171875 124.8125 269.574219 125.289062 C 269.988281 125.753906 270.546875 125.984375 271.246094 125.984375 C 272.167969 125.984375 272.875 125.574219 273.363281 124.753906 C 273.855469 123.917969 274.101562 122.722656 274.101562 121.171875 L 274.101562 119.984375 C 273.683594 119.910156 273.292969 119.875 272.917969 119.875 C 271.699219 119.875 270.730469 120.195312 270.019531 120.835938 C 269.320312 121.464844 268.972656 122.3125 268.972656 123.386719 Z M 281.59375 111.078125 C 281.59375 110.914062 281.648438 110.78125 281.75 110.675781 C 281.871094 110.554688 282.011719 110.496094 282.175781 110.496094 L 285.117188 110.496094 C 285.28125 110.496094 285.417969 110.546875 285.519531 110.652344 C 285.640625 110.757812 285.714844 110.898438 285.742188 111.078125 L 286.191406 113.269531 L 286.371094 113.269531 C 286.769531 112.242188 287.34375 111.457031 288.085938 110.921875 C 288.84375 110.367188 289.738281 110.09375 290.761719 110.09375 C 291.863281 110.09375 292.808594 110.386719 293.59375 110.96875 C 294.398438 111.546875 295.015625 112.378906 295.449219 113.449219 L 295.625 113.449219 C 296.28125 112.316406 297.015625 111.472656 297.835938 110.921875 C 298.652344 110.367188 299.566406 110.09375 300.578125 110.09375 C 301.679688 110.09375 302.628906 110.390625 303.433594 110.988281 C 304.25 111.585938 304.875 112.4375 305.308594 113.539062 C 305.738281 114.644531 305.957031 115.949219 305.957031 117.457031 L 305.957031 128.535156 C 305.957031 128.699219 305.894531 128.84375 305.777344 128.960938 C 305.671875 129.066406 305.539062 129.117188 305.375 129.117188 L 301.804688 129.117188 C 301.640625 129.117188 301.5 129.066406 301.378906 128.960938 C 301.277344 128.84375 301.226562 128.699219 301.226562 128.535156 L 301.226562 117.816406 C 301.226562 116.726562 301.015625 115.890625 300.601562 115.308594 C 300.183594 114.726562 299.582031 114.4375 298.792969 114.4375 C 297.929688 114.4375 297.269531 114.777344 296.808594 115.464844 C 296.363281 116.152344 296.136719 117.144531 296.136719 118.441406 L 296.136719 128.535156 C 296.136719 128.699219 296.078125 128.84375 295.960938 128.960938 C 295.855469 129.066406 295.722656 129.117188 295.558594 129.117188 L 291.988281 129.117188 C 291.824219 129.117188 291.683594 129.066406 291.5625 128.960938 C 291.460938 128.84375 291.410156 128.699219 291.410156 128.535156 L 291.410156 117.816406 C 291.410156 116.726562 291.199219 115.890625 290.785156 115.308594 C 290.367188 114.726562 289.765625 114.4375 288.976562 114.4375 C 288.113281 114.4375 287.453125 114.777344 286.992188 115.464844 C 286.546875 116.152344 286.320312 117.144531 286.320312 118.441406 L 286.320312 128.535156 C 286.320312 128.699219 286.261719 128.84375 286.144531 128.960938 C 286.039062 129.066406 285.90625 129.117188 285.742188 129.117188 L 282.171875 129.117188 C 282.007812 129.117188 281.867188 129.066406 281.746094 128.960938 C 281.644531 128.84375 281.59375 128.699219 281.59375 128.535156 Z M 308.273438 123.925781 C 308.273438 122.597656 308.601562 121.433594 309.253906 120.433594 C 309.925781 119.433594 310.867188 118.664062 312.089844 118.128906 C 313.320312 117.589844 314.765625 117.320312 316.414062 117.320312 C 317.175781 117.320312 317.789062 117.375 318.269531 117.476562 L 318.269531 117.007812 C 318.269531 115.875 318.058594 115.03125 317.644531 114.480469 C 317.226562 113.910156 316.59375 113.628906 315.746094 113.628906 C 314.378906 113.628906 313.5 114.351562 313.113281 115.796875 C 312.996094 116.214844 312.75 116.394531 312.378906 116.335938 L 309.34375 115.796875 C 309.121094 115.753906 308.964844 115.65625 308.875 115.507812 C 308.800781 115.359375 308.792969 115.15625 308.855469 114.902344 C 309.238281 113.378906 310.058594 112.203125 311.308594 111.367188 C 312.574219 110.519531 314.15625 110.09375 316.058594 110.09375 C 318.320312 110.09375 320.035156 110.703125 321.210938 111.929688 C 322.402344 113.152344 322.996094 114.933594 322.996094 117.277344 L 322.996094 128.535156 C 322.996094 128.699219 322.9375 128.839844 322.816406 128.960938 C 322.714844 129.0625 322.578125 129.117188 322.414062 129.117188 L 319.515625 129.117188 C 319.160156 129.117188 318.9375 128.921875 318.847656 128.535156 L 318.398438 126.429688 L 318.222656 126.429688 C 317.820312 127.414062 317.21875 128.175781 316.414062 128.710938 C 315.625 129.25 314.691406 129.519531 313.605469 129.519531 C 312.519531 129.519531 311.617188 129.285156 310.816406 128.824219 C 310.011719 128.347656 309.386719 127.691406 308.941406 126.855469 C 308.496094 126.003906 308.273438 125.027344 308.273438 123.921875 Z M 313.136719 123.386719 C 313.136719 124.179688 313.339844 124.8125 313.738281 125.289062 C 314.15625 125.753906 314.714844 125.984375 315.410156 125.984375 C 316.332031 125.984375 317.039062 125.574219 317.53125 124.753906 C 318.019531 123.917969 318.269531 122.722656 318.269531 121.171875 L 318.269531 119.984375 C 317.851562 119.910156 317.457031 119.875 317.085938 119.875 C 315.867188 119.875 314.898438 120.195312 314.183594 120.835938 C 313.488281 121.464844 313.136719 122.3125 313.136719 123.386719 Z M 325.40625 125.828125 C 325.40625 125.5 325.496094 125.214844 325.671875 124.976562 L 333.300781 114.253906 L 326.164062 114.253906 C 326 114.253906 325.859375 114.203125 325.738281 114.097656 C 325.636719 113.980469 325.582031 113.839844 325.582031 113.671875 L 325.582031 111.078125 C 325.582031 110.914062 325.636719 110.78125 325.738281 110.675781 C 325.859375 110.554688 326 110.496094 326.164062 110.496094 L 337.894531 110.496094 C 338.0625 110.496094 338.195312 110.554688 338.296875 110.675781 C 338.417969 110.78125 338.476562 110.914062 338.476562 111.078125 L 338.476562 113.785156 C 338.476562 114.113281 338.386719 114.398438 338.210938 114.636719 L 331.296875 124.171875 C 331.710938 124.097656 332.136719 124.058594 332.566406 124.058594 C 333.636719 124.058594 334.617188 124.15625 335.511719 124.351562 C 336.417969 124.53125 337.351562 124.828125 338.320312 125.246094 C 338.664062 125.394531 338.835938 125.648438 338.835938 126.007812 L 338.835938 128.582031 C 338.835938 128.820312 338.757812 128.984375 338.609375 129.074219 C 338.460938 129.148438 338.277344 129.140625 338.054688 129.050781 C 336.9375 128.632812 335.949219 128.34375 335.085938 128.179688 C 334.238281 128 333.308594 127.910156 332.296875 127.910156 C 331.285156 127.910156 330.320312 128 329.355469 128.179688 C 328.402344 128.359375 327.347656 128.648438 326.1875 129.050781 C 325.964844 129.125 325.777344 129.125 325.628906 129.050781 C 325.480469 128.960938 325.40625 128.804688 325.40625 128.582031 Z M 339.816406 119.808594 C 339.816406 117.988281 340.164062 116.339844 340.863281 114.863281 C 341.5625 113.371094 342.519531 112.207031 343.738281 111.371094 C 344.976562 110.519531 346.34375 110.09375 347.84375 110.09375 C 349.347656 110.09375 350.730469 110.519531 351.949219 111.367188 C 353.183594 112.203125 354.152344 113.367188 354.847656 114.859375 C 355.5625 116.335938 355.921875 117.984375 355.921875 119.804688 C 355.921875 121.625 355.5625 123.28125 354.847656 124.773438 C 354.152344 126.25 353.183594 127.414062 351.949219 128.265625 C 350.730469 129.097656 349.363281 129.519531 347.84375 129.519531 C 346.328125 129.519531 344.972656 129.097656 343.738281 128.265625 C 342.519531 127.414062 341.5625 126.25 340.863281 124.773438 C 340.164062 123.28125 339.816406 121.625 339.816406 119.804688 Z M 344.722656 119.808594 C 344.722656 121.703125 344.988281 123.164062 345.523438 124.195312 C 346.058594 125.207031 346.832031 125.714844 347.84375 125.714844 C 348.855469 125.714844 349.636719 125.207031 350.1875 124.195312 C 350.738281 123.164062 351.011719 121.703125 351.011719 119.808594 C 351.011719 117.914062 350.738281 116.457031 350.1875 115.441406 C 349.636719 114.414062 348.855469 113.898438 347.84375 113.898438 C 346.832031 113.898438 346.058594 114.414062 345.523438 115.441406 C 344.988281 116.457031 344.722656 117.914062 344.722656 119.808594 Z M 358.328125 111.078125 C 358.328125 110.914062 358.382812 110.78125 358.484375 110.675781 C 358.605469 110.554688 358.746094 110.496094 358.910156 110.496094 L 361.851562 110.496094 C 362.015625 110.496094 362.152344 110.546875 362.253906 110.652344 C 362.375 110.757812 362.449219 110.898438 362.476562 111.078125 L 362.925781 113.269531 L 363.101562 113.269531 C 363.503906 112.257812 364.09375 111.472656 364.867188 110.921875 C 365.652344 110.367188 366.574219 110.09375 367.628906 110.09375 C 368.761719 110.09375 369.734375 110.390625 370.550781 110.988281 C 371.386719 111.585938 372.023438 112.4375 372.46875 113.539062 C 372.917969 114.644531 373.140625 115.949219 373.140625 117.457031 L 373.140625 128.535156 C 373.140625 128.699219 373.078125 128.84375 372.960938 128.960938 C 372.855469 129.066406 372.722656 129.117188 372.558594 129.117188 L 368.988281 129.117188 C 368.828125 129.117188 368.683594 129.066406 368.566406 128.960938 C 368.460938 128.84375 368.410156 128.699219 368.410156 128.535156 L 368.410156 117.816406 C 368.410156 116.726562 368.1875 115.890625 367.742188 115.308594 C 367.292969 114.726562 366.660156 114.4375 365.84375 114.4375 C 364.9375 114.4375 364.246094 114.777344 363.769531 115.464844 C 363.292969 116.152344 363.054688 117.144531 363.054688 118.441406 L 363.054688 128.535156 C 363.054688 128.699219 362.996094 128.84375 362.878906 128.960938 C 362.773438 129.066406 362.640625 129.117188 362.476562 129.117188 L 358.90625 129.117188 C 358.742188 129.117188 358.601562 129.066406 358.480469 128.960938 C 358.378906 128.84375 358.324219 128.699219 358.324219 128.535156 L 358.324219 111.078125 Z M 358.328125 111.078125 " fill-opacity="1" fill-rule="nonzero"/></g><g clip-path="url(#aff7b26e32)"><path fill="#ff6201" d="M 276.511719 131.691406 C 276.226562 131.914062 276.167969 132.285156 276.332031 132.808594 C 276.480469 133.269531 276.828125 133.84375 277.378906 134.53125 C 279.59375 137.277344 282.234375 139.558594 285.296875 141.378906 C 288.359375 143.199219 291.640625 144.542969 295.136719 145.40625 C 298.644531 146.289062 302.226562 146.730469 305.886719 146.730469 C 310.570312 146.730469 315.03125 146.042969 319.269531 144.671875 C 323.507812 143.3125 327.046875 141.402344 329.886719 138.941406 C 330.882812 138.0625 331.382812 137.359375 331.382812 136.835938 C 331.382812 136.644531 331.300781 136.449219 331.136719 136.253906 C 330.914062 136.03125 330.648438 135.957031 330.335938 136.03125 C 330.023438 136.105469 329.582031 136.292969 329.019531 136.589844 C 326.296875 138.023438 322.980469 139.164062 319.070312 140.015625 C 315.171875 140.882812 311.105469 141.316406 306.867188 141.316406 C 301.617188 141.316406 296.546875 140.597656 291.65625 139.167969 C 286.761719 137.734375 282.425781 135.496094 278.652344 132.453125 C 278.101562 132.019531 277.65625 131.742188 277.3125 131.625 C 276.984375 131.503906 276.71875 131.527344 276.511719 131.691406 Z M 276.511719 131.691406 " fill-opacity="1" fill-rule="nonzero"/></g><path fill="#ff6201" d="M 326.074219 132.808594 C 325.761719 133.109375 325.679688 133.421875 325.828125 133.75 C 325.933594 133.988281 326.132812 134.121094 326.429688 134.152344 C 326.726562 134.195312 327.152344 134.167969 327.703125 134.0625 C 328.59375 133.867188 329.523438 133.734375 330.488281 133.660156 C 331.457031 133.601562 332.296875 133.617188 333.011719 133.703125 C 333.722656 133.808594 334.171875 133.988281 334.347656 134.242188 C 334.617188 134.644531 334.519531 135.496094 334.058594 136.792969 C 333.613281 138.089844 333.003906 139.351562 332.230469 140.574219 C 331.933594 141.066406 331.753906 141.457031 331.695312 141.738281 C 331.636719 142.023438 331.710938 142.261719 331.917969 142.453125 C 332.050781 142.589844 332.199219 142.65625 332.363281 142.65625 C 332.796875 142.65625 333.421875 142.277344 334.238281 141.515625 C 335.710938 140.234375 336.742188 138.710938 337.339844 136.949219 C 337.664062 136.039062 337.867188 135.082031 337.941406 134.082031 C 338.015625 133.082031 337.902344 132.367188 337.605469 131.933594 C 337.324219 131.515625 336.699219 131.175781 335.730469 130.90625 C 334.78125 130.636719 333.820312 130.503906 332.855469 130.503906 C 330.964844 130.503906 329.171875 130.949219 327.476562 131.84375 C 326.851562 132.1875 326.386719 132.507812 326.074219 132.808594 Z M 326.074219 132.808594 " fill-opacity="1" fill-rule="nonzero"/><g clip-path="url(#dac4b053bb)"><path fill="#ff9900" d="M 410.308594 128.316406 C 410.585938 128.613281 410.878906 128.726562 411.324219 128.726562 C 411.914062 128.726562 412.160156 128.515625 417.09375 123.566406 C 422.1875 118.484375 422.269531 118.402344 422.269531 117.746094 C 422.269531 117.089844 422.1875 117.007812 417.09375 111.929688 C 412.160156 106.980469 411.914062 106.765625 411.324219 106.765625 C 410.472656 106.765625 409.898438 107.339844 409.898438 108.191406 C 409.898438 108.78125 410.09375 109.011719 414.355469 113.273438 L 418.828125 117.746094 L 414.355469 122.222656 C 410.09375 126.484375 409.898438 126.710938 409.898438 127.300781 C 409.898438 127.746094 410.011719 128.039062 410.308594 128.316406 Z M 410.308594 128.316406 " fill-opacity="1" fill-rule="nonzero"/></g><g fill="#ffffff" fill-opacity="1"><g transform="translate(281.142054, 100.616862)"><g><path d="M 1.296875 0 L 1.296875 -9.953125 L 5.546875 -9.953125 C 6.160156 -9.953125 6.675781 -9.851562 7.09375 -9.65625 C 7.519531 -9.46875 7.84375 -9.195312 8.0625 -8.84375 C 8.28125 -8.488281 8.390625 -8.066406 8.390625 -7.578125 C 8.390625 -7.140625 8.28125 -6.75 8.0625 -6.40625 C 7.851562 -6.070312 7.550781 -5.804688 7.15625 -5.609375 L 7.15625 -5.46875 C 7.78125 -5.300781 8.257812 -5 8.59375 -4.5625 C 8.9375 -4.132812 9.109375 -3.609375 9.109375 -2.984375 C 9.109375 -2.023438 8.820312 -1.285156 8.25 -0.765625 C 7.675781 -0.253906 6.828125 0 5.703125 0 Z M 5.140625 -5.984375 C 6.054688 -5.984375 6.515625 -6.398438 6.515625 -7.234375 C 6.515625 -7.648438 6.398438 -7.960938 6.171875 -8.171875 C 5.941406 -8.378906 5.597656 -8.484375 5.140625 -8.484375 L 3.265625 -8.484375 L 3.265625 -5.984375 Z M 5.5 -1.5625 C 6.582031 -1.5625 7.125 -2.050781 7.125 -3.03125 C 7.125 -4.03125 6.582031 -4.53125 5.5 -4.53125 L 3.265625 -4.53125 L 3.265625 -1.5625 Z M 5.5 -1.5625 "/></g></g></g><g fill="#ffffff" fill-opacity="1"><g transform="translate(290.881071, 100.616862)"><g><path d="M 3.4375 0.140625 C 2.59375 0.140625 1.96875 -0.0859375 1.5625 -0.546875 C 1.164062 -1.003906 0.96875 -1.664062 0.96875 -2.53125 L 0.96875 -7.515625 L 2.859375 -7.515625 L 2.859375 -2.765625 C 2.859375 -2.304688 2.957031 -1.972656 3.15625 -1.765625 C 3.351562 -1.554688 3.65625 -1.453125 4.0625 -1.453125 C 4.582031 -1.453125 4.988281 -1.625 5.28125 -1.96875 C 5.570312 -2.3125 5.71875 -2.847656 5.71875 -3.578125 L 5.71875 -7.515625 L 7.609375 -7.515625 L 7.609375 0 L 5.796875 0 L 5.796875 -1.109375 L 5.65625 -1.140625 C 5.414062 -0.703125 5.117188 -0.378906 4.765625 -0.171875 C 4.421875 0.0351562 3.976562 0.140625 3.4375 0.140625 Z M 3.4375 0.140625 "/></g></g></g><g fill="#ffffff" fill-opacity="1"><g transform="translate(299.571271, 100.616862)"><g><path d="M 1.65625 3.1875 C 1.332031 3.1875 1.039062 3.160156 0.78125 3.109375 C 0.519531 3.054688 0.3125 2.992188 0.15625 2.921875 L 0.453125 1.390625 L 0.578125 1.34375 C 0.691406 1.40625 0.832031 1.453125 1 1.484375 C 1.164062 1.523438 1.335938 1.546875 1.515625 1.546875 C 1.816406 1.546875 2.066406 1.503906 2.265625 1.421875 C 2.472656 1.347656 2.644531 1.21875 2.78125 1.03125 C 2.925781 0.84375 3.050781 0.585938 3.15625 0.265625 L 0.15625 -7.515625 L 2.140625 -7.515625 L 4 -2.296875 L 4.171875 -2.296875 L 5.984375 -7.515625 L 7.90625 -7.515625 L 4.890625 0.46875 C 4.648438 1.113281 4.382812 1.628906 4.09375 2.015625 C 3.8125 2.410156 3.472656 2.703125 3.078125 2.890625 C 2.679688 3.085938 2.207031 3.1875 1.65625 3.1875 Z M 1.65625 3.1875 "/></g></g></g><g fill="#ffffff" fill-opacity="1"><g transform="translate(307.634905, 100.616862)"><g/></g></g><g fill="#ffffff" fill-opacity="1"><g transform="translate(310.924378, 100.616862)"><g><path d="M 1.078125 0 L 1.078125 -7.515625 L 2.890625 -7.515625 L 2.890625 -6.40625 L 3.03125 -6.375 C 3.5 -7.226562 4.257812 -7.65625 5.3125 -7.65625 C 6.175781 -7.65625 6.8125 -7.414062 7.21875 -6.9375 C 7.625 -6.46875 7.828125 -5.785156 7.828125 -4.890625 L 7.828125 0 L 5.953125 0 L 5.953125 -4.65625 C 5.953125 -5.15625 5.847656 -5.515625 5.640625 -5.734375 C 5.441406 -5.953125 5.125 -6.0625 4.6875 -6.0625 C 4.144531 -6.0625 3.722656 -5.882812 3.421875 -5.53125 C 3.117188 -5.1875 2.96875 -4.640625 2.96875 -3.890625 L 2.96875 0 Z M 1.078125 0 "/></g></g></g><g fill="#ffffff" fill-opacity="1"><g transform="translate(319.723546, 100.616862)"><g><path d="M 4.359375 0.140625 C 3.628906 0.140625 2.984375 -0.0078125 2.421875 -0.3125 C 1.867188 -0.613281 1.4375 -1.054688 1.125 -1.640625 C 0.820312 -2.222656 0.671875 -2.925781 0.671875 -3.75 C 0.671875 -4.582031 0.820312 -5.289062 1.125 -5.875 C 1.4375 -6.457031 1.867188 -6.898438 2.421875 -7.203125 C 2.984375 -7.503906 3.628906 -7.65625 4.359375 -7.65625 C 5.097656 -7.65625 5.742188 -7.503906 6.296875 -7.203125 C 6.859375 -6.898438 7.289062 -6.457031 7.59375 -5.875 C 7.90625 -5.289062 8.0625 -4.582031 8.0625 -3.75 C 8.0625 -2.925781 7.90625 -2.222656 7.59375 -1.640625 C 7.289062 -1.054688 6.859375 -0.613281 6.296875 -0.3125 C 5.742188 -0.0078125 5.097656 0.140625 4.359375 0.140625 Z M 4.359375 -1.453125 C 5.535156 -1.453125 6.125 -2.21875 6.125 -3.75 C 6.125 -4.550781 5.972656 -5.132812 5.671875 -5.5 C 5.367188 -5.875 4.929688 -6.0625 4.359375 -6.0625 C 3.191406 -6.0625 2.609375 -5.289062 2.609375 -3.75 C 2.609375 -2.21875 3.191406 -1.453125 4.359375 -1.453125 Z M 4.359375 -1.453125 "/></g></g></g><g fill="#ffffff" fill-opacity="1"><g transform="translate(328.400113, 100.616862)"><g><path d="M 4.03125 0 L 2.0625 0 L 0.265625 -7.515625 L 2.03125 -7.515625 L 3.125 -2.4375 L 3.265625 -2.4375 L 4.703125 -7.515625 L 6.34375 -7.515625 L 7.8125 -2.4375 L 7.953125 -2.4375 L 9.015625 -7.515625 L 10.71875 -7.515625 L 8.953125 0 L 6.984375 0 L 5.546875 -5.109375 L 5.40625 -5.109375 Z M 4.03125 0 "/></g></g></g><g fill="#ffffff" fill-opacity="1"><g transform="translate(339.385452, 100.616862)"><g/></g></g><g fill="#ffffff" fill-opacity="1"><g transform="translate(342.674925, 100.616862)"><g><path d="M 2.921875 0.140625 C 2.441406 0.140625 2.023438 0.0507812 1.671875 -0.125 C 1.316406 -0.300781 1.046875 -0.5625 0.859375 -0.90625 C 0.671875 -1.25 0.578125 -1.660156 0.578125 -2.140625 C 0.578125 -2.585938 0.671875 -2.960938 0.859375 -3.265625 C 1.046875 -3.566406 1.335938 -3.8125 1.734375 -4 C 2.140625 -4.195312 2.664062 -4.347656 3.3125 -4.453125 C 3.757812 -4.523438 4.097656 -4.601562 4.328125 -4.6875 C 4.566406 -4.769531 4.726562 -4.863281 4.8125 -4.96875 C 4.894531 -5.082031 4.9375 -5.222656 4.9375 -5.390625 C 4.9375 -5.628906 4.847656 -5.8125 4.671875 -5.9375 C 4.503906 -6.070312 4.226562 -6.140625 3.84375 -6.140625 C 3.425781 -6.140625 3.023438 -6.046875 2.640625 -5.859375 C 2.265625 -5.671875 1.941406 -5.425781 1.671875 -5.125 L 1.53125 -5.125 L 0.75 -6.3125 C 1.125 -6.738281 1.585938 -7.066406 2.140625 -7.296875 C 2.691406 -7.535156 3.289062 -7.65625 3.9375 -7.65625 C 4.9375 -7.65625 5.65625 -7.441406 6.09375 -7.015625 C 6.539062 -6.597656 6.765625 -6 6.765625 -5.21875 L 6.765625 -1.96875 C 6.765625 -1.625 6.910156 -1.453125 7.203125 -1.453125 C 7.316406 -1.453125 7.429688 -1.472656 7.546875 -1.515625 L 7.640625 -1.484375 L 7.78125 -0.171875 C 7.664062 -0.109375 7.515625 -0.0546875 7.328125 -0.015625 C 7.148438 0.0234375 6.945312 0.046875 6.71875 0.046875 C 6.269531 0.046875 5.921875 -0.0351562 5.671875 -0.203125 C 5.421875 -0.378906 5.238281 -0.648438 5.125 -1.015625 L 4.984375 -1.03125 C 4.617188 -0.25 3.929688 0.140625 2.921875 0.140625 Z M 3.53125 -1.265625 C 3.96875 -1.265625 4.316406 -1.410156 4.578125 -1.703125 C 4.835938 -1.992188 4.96875 -2.398438 4.96875 -2.921875 L 4.96875 -3.6875 L 4.84375 -3.71875 C 4.726562 -3.625 4.578125 -3.546875 4.390625 -3.484375 C 4.203125 -3.429688 3.9375 -3.375 3.59375 -3.3125 C 3.1875 -3.238281 2.894531 -3.117188 2.71875 -2.953125 C 2.539062 -2.796875 2.453125 -2.5625 2.453125 -2.25 C 2.453125 -1.925781 2.546875 -1.679688 2.734375 -1.515625 C 2.921875 -1.347656 3.1875 -1.265625 3.53125 -1.265625 Z M 3.53125 -1.265625 "/></g></g></g><g fill="#ffffff" fill-opacity="1"><g transform="translate(350.506979, 100.616862)"><g><path d="M 5.1875 -1.796875 L 5.671875 -0.390625 C 5.472656 -0.222656 5.21875 -0.09375 4.90625 0 C 4.59375 0.09375 4.242188 0.140625 3.859375 0.140625 C 3.046875 0.140625 2.425781 -0.078125 2 -0.515625 C 1.582031 -0.960938 1.375 -1.609375 1.375 -2.453125 L 1.375 -6.015625 L 0.21875 -6.015625 L 0.21875 -7.515625 L 1.375 -7.515625 L 1.375 -8.984375 L 3.25 -9.296875 L 3.25 -7.515625 L 5.390625 -7.515625 L 5.390625 -6.015625 L 3.25 -6.015625 L 3.25 -2.59375 C 3.25 -2.21875 3.328125 -1.941406 3.484375 -1.765625 C 3.640625 -1.597656 3.863281 -1.515625 4.15625 -1.515625 C 4.5 -1.515625 4.796875 -1.609375 5.046875 -1.796875 Z M 5.1875 -1.796875 "/></g></g></g><g clip-path="url(#db2ded382c)"><path fill="#ff9900" d="M 420.339844 128.316406 C 420.621094 128.613281 420.914062 128.726562 421.355469 128.726562 C 421.945312 128.726562 422.191406 128.515625 427.125 123.566406 C 432.222656 118.484375 432.304688 118.402344 432.304688 117.746094 C 432.304688 117.089844 432.222656 117.007812 427.125 111.929688 C 422.191406 106.980469 421.945312 106.765625 421.355469 106.765625 C 420.503906 106.765625 419.929688 107.339844 419.929688 108.191406 C 419.929688 108.78125 420.128906 109.011719 424.390625 113.273438 L 428.863281 117.746094 L 424.390625 122.222656 C 420.128906 126.484375 419.929688 126.710938 419.929688 127.300781 C 419.929688 127.746094 420.046875 128.039062 420.339844 128.316406 Z M 420.339844 128.316406 " fill-opacity="1" fill-rule="nonzero"/></g></svg>